<?xml version="1.0"?>
<!DOCTYPE svg PUBLIC "-//W3C//DTD SVG 1.1//EN" "http://www.w3.org/Graphics/SVG/1.1/DTD/svg11.dtd">
<svg xmlns="http://www.w3.org/2000/svg" version="1.1" width="800" height="800">
      <rect x="0" y="0" rx="0" ry="0" width="800" height="800" style="fill:bisque" transform="rotate()0" stroke="bisque"  />
      <rect x="0" y="0" rx="0" ry="0" width="100" height="150" style="fill:lightblue" transform="rotate()0" stroke="lightblue"  />
      <rect x="0" y="150" rx="0" ry="0" width="200" height="80" style="fill:darksalmon" transform="rotate()0" stroke="darksalmon"  />
      <rect x="100" y="230" rx="0" ry="0" width="100" height="150" style="fill:lightseagreen" transform="rotate()0" stroke="lightseagreen"  />
      <rect x="100" y="370" rx="0" ry="0" width="200" height="80" style="fill:darkgrey" transform="rotate()0" stroke="darkgrey"  />
      <rect x="200" y="450" rx="0" ry="0" width="100" height="150" style="fill:lightseagreen" transform="rotate()0" stroke="lightseagreen"  />
      <rect x="200" y="600" rx="0" ry="0" width="200" height="80" style="fill:darksalmon" transform="rotate()0" stroke="darksalmon"  />
      <rect x="300" y="680" rx="0" ry="0" width="100" height="150" style="fill:lightblue" transform="rotate()0" stroke="lightblue"  />
      <circle cx="400" cy="400" r="100" fill="lightblue"  />
      <polygon points="405,300 405,500 500,400" style="fill:lightseagreen"  />
      <polygon points="405,300 405,500 300,400" style="fill:lightseagreen"  />
      <ellipse cx="400" cy="400" rx="100" ry="10" fill="darkgrey"  />
      <ellipse cx="405" cy="400" rx="10" ry="100" fill="darkgrey"  />
      <rect x="700" y="0" rx="0" ry="0" width="100" height="150" style="fill:lightblue" transform="rotate()0" stroke="lightblue"  />
      <rect x="600" y="150" rx="0" ry="0" width="200" height="80" style="fill:darksalmon" transform="rotate()0" stroke="darksalmon"  />
      <rect x="600" y="230" rx="0" ry="0" width="100" height="150" style="fill:lightseagreen" transform="rotate()0" stroke="lightseagreen"  />
      <rect x="500" y="370" rx="0" ry="0" width="200" height="80" style="fill:darkgrey" transform="rotate()0" stroke="darkgrey"  />
      <rect x="500" y="450" rx="0" ry="0" width="100" height="150" style="fill:lightseagreen" transform="rotate()0" stroke="lightseagreen"  />
      <rect x="400" y="600" rx="0" ry="0" width="200" height="80" style="fill:darksalmon" transform="rotate()0" stroke="darksalmon"  />
      <rect x="400" y="680" rx="0" ry="0" width="100" height="150" style="fill:lightblue" transform="rotate()0" stroke="lightblue"  />
</svg>
